# xmcd
#
# Track frame offsets: 
#        150
#        13944
#        38474
#        54360
#        70501
#        88732
#        105887
#        123854
#        139927
#        157241
#        174135
#        193314
#        201934
#        220332
#        237029
#
# Disc length: 3345 seconds
#
# Revision: 0
# Processed by: cddbd v1.5.1PL0 Copyright (c) Steve Scherf et al.
# Submitted via: ExactAudioCopy v0.95a3
#
DISCID=c70d0f0f
DTITLE=Various Artist - Boleros con Sabor a Ti
DYEAR=2000
DGENRE=Latin
TTITLE0=Luis Miguel/Sabor a mi
TTITLE1=Alejandro Sanz/Eres mía
TTITLE2=Francisco Céspedes/Que hago contigo
TTITLE3=Miguel Bosé/Amapola bésame
TTITLE4=Presuntos Implicados/Hazme la noche
TTITLE5=Cómplices/Hoy necesito
TTITLE6=Café Quijano/La duda eterna
TTITLE7=Chavela Vargas/Encadenados
TTITLE8=Hilario Camacho/Y todos duermen
TTITLE9=Linda Rondstad/Perfidia
TTITLE10=La Unión/Si te vas
TTITLE11=Company Segundo/Orgullecida
TTITLE12=Lydia/Nunca te olvido
TTITLE13=Bertín Osborne/Cuando me vaya
TTITLE14=Alberto Tarín/Bolero de luna
EXTD=
EXTT0=
EXTT1=
EXTT2=
EXTT3=
EXTT4=
EXTT5=
EXTT6=
EXTT7=
EXTT8=
EXTT9=
EXTT10=
EXTT11=
EXTT12=
EXTT13=
EXTT14=
PLAYORDER=
